<svg xmlns="http://www.w3.org/2000/svg" width="27.97" height="18"><path data-name="Forma 1" d="M27.95.37a.339.339 0 0 0-.06-.15V.21a.573.573 0 0 0-.11-.11c-.01-.01-.02-.01-.03-.02a.37.37 0 0 0-.11-.05c-.02-.01-.05-.01-.08-.02S27.53 0 27.5 0h-.07a.037.037 0 0 1-.03.01L.36 5.41a.446.446 0 0 0-.36.38.451.451 0 0 0 .24.46l7.75 3.95 1.35 7.28v.12a.127.127 0 0 1 .01.06.612.612 0 0 0 .05.12c.01 0 .01.01.01.02a.01.01 0 0 1 .01.01.038.038 0 0 1 .02.02.462.462 0 0 0 .07.07.01.01 0 0 1 .01.01.031.031 0 0 0 .02.01c.03.02.06.03.09.05a.227.227 0 0 1 .04.01.585.585 0 0 0 .13.02h.03a.477.477 0 0 0 .33-.14l5.16-3.33 5.4 3.4a.594.594 0 0 0 .26.07.784.784 0 0 0 .14-.02.474.474 0 0 0 .29-.28L27.9.68a.369.369 0 0 0 .07-.23.235.235 0 0 0-.02-.08zM22.56 3.4l-11.17 7.94a.218.218 0 0 0-.05.04l-.02.02-.03.03a.053.053 0 0 1-.02.03.355.355 0 0 0-.04.09l-.01.01v.01l-1.28 4.02-1.02-5.44zm-11.9 13.06l1.27-4.06 1.98 1.25.56.35-1.92 1.24z" fill="#0b4bec" fill-rule="evenodd"/></svg>