<svg xmlns="http://www.w3.org/2000/svg" width="63.75" height="44.531" viewBox="0 0 63.75 44.531">
  <metadata><?xpacket begin="﻿" id="W5M0MpCehiHzreSzNTczkc9d"?>
<x:xmpmeta xmlns:x="adobe:ns:meta/" x:xmptk="Adobe XMP Core 5.6-c138 79.159824, 2016/09/14-01:09:01        ">
   <rdf:RDF xmlns:rdf="http://www.w3.org/1999/02/22-rdf-syntax-ns#">
      <rdf:Description rdf:about=""/>
   </rdf:RDF>
</x:xmpmeta>
                                                                                                    
                                                                                                    
                                                                                                    
                                                                                                    
                                                                                                    
                                                                                                    
                                                                                                    
                                                                                                    
                                                                                                    
                                                                                                    
                                                                                                    
                                                                                                    
                                                                                                    
                                                                                                    
                                                                                                    
                                                                                                    
                                                                                                    
                                                                                                    
                                                                                                    
                                                                                                    
                           
<?xpacket end="w"?></metadata>
<defs>
    <style>
      .cls-1 {
        fill: #bebebe;
        fill-rule: evenodd;
        opacity: 0.5;
      }
    </style>
  </defs>
  <path class="cls-1" d="M411.52,484.752c5.733,3.611,10.341,8.343,15.117,12.907,3.085,5.43,6.411,10.618,9.409,16.134,0.4,0.027,1.034-.492,1.235-0.155-1.178,4.288,6.636,5.355,7.867,2,0.532-2.383-1.5-3-1.7-4.147,2.42-.508,4.412-1.445,6.941-1.844-2.012,5.139,5.1,6.336,6.324,2.767a5.413,5.413,0,0,0-1.08-3.689c0.35-.574,1.32-0.529,1.234-1.537-1.159-.791-1.29-2.607-2.159-3.687-6.168.267-11.436,2.739-17.277,3.842-1.441-3.175-3.661-5.572-4.936-8.912,6.822-2.118,14.1-3.782,21.133-5.686,0.55-4.332.309-10.3,0.309-15.057,0-1.59.475-3.6-.618-4.609-1.278-.078-3.178.507-3.547,1.843-10.547,2.913-21.459,5.463-30.851,9.526-2.6-1.5-4.908-3.307-7.559-4.763-5.6,2.415-11.966,4.061-16.969,7.068-0.267.377-1.273-.45-1.233,0.461-0.194,1.065.574,2.5,1.079,3.38C400.691,489.332,405.177,486.118,411.52,484.752Zm40.569-10.141h0.464v17.363c-3.784.789-7.658,1.489-11.261,2.458-3.695.827-7.458,1.586-10.336,3.227,1.19,4.142,3.341,7.326,5.245,10.756,6.548,0.19,11.726-3.047,17.74-3.38a5.187,5.187,0,0,0,.463,1.688c-5.773,1.782-11.879,3.227-17.277,5.38-2.864-5.8-6.68-10.659-9.873-16.134a93.093,93.093,0,0,0-15.888-12.753c-3.545.309-5.808,1.9-8.484,3.072-1.478.425-2.8,1-4.319,1.384-1.325.112-2.867,1.953-3.857,0.921-0.535-1.027,1.059-.9,1.543-1.382a12.48,12.48,0,0,0,2.159-.923c4.144-2.017,8.963-3.364,13.42-5.069A120.073,120.073,0,0,1,427.562,493.2a4.7,4.7,0,0,0,2.16,2.305c7.3-2.408,15.636-3.785,22.213-6.915,0.143-4.189-.244-7.849-0.463-11.677-0.14-1.01,1.08-.666.771-1.844A0.729,0.729,0,0,1,452.089,474.611Zm-2.313,2.152h0.308v0.922c-2.018,1.062-4.719,1.446-7.1,2.151-7.451,1.745-13.668,4.719-20.825,6.76a3.811,3.811,0,0,1-1.85-1.23C429.456,481.823,440,479.674,449.776,476.763Zm0.617,4.916c-8.031,2.808-17.263,4.42-25.145,7.376a3.658,3.658,0,0,1-2.158-1.69c9.018-2.746,17.537-5.989,26.994-8.3A9.667,9.667,0,0,1,450.393,481.679Zm-0.463,1.076h0.308c0.666,0.106.143,1.395,0.309,2-7.121,2.587-14.937,4.483-22.059,7.068a4.9,4.9,0,0,1-2.468-2.15C433.68,487.056,442.47,485.568,449.93,482.755Zm0.617,4.917c-6.427,2.408-13.937,3.737-20.208,6.3a2.63,2.63,0,0,1-1.234-1.382c7.062-2.185,14.427-4.068,21.133-6.607C450.888,486,450.392,487.161,450.547,487.672Zm2.931,21.665c0.993,0.394,1.382,1.39,1.542,2.611-1.009,1.514-4.161,1.118-3.7-1.382A2.3,2.3,0,0,1,453.478,509.337Zm-0.925,1.844a2.591,2.591,0,0,1,.462.613c0.813,0.094,1.3-.136,1.389-0.767a0.945,0.945,0,0,0-.926-1.077A1.169,1.169,0,0,0,452.553,511.181Zm-9.1,3.994c-0.775,1.222-3.748.865-4.629,0C438.894,512.665,443.537,512.124,443.452,515.175Zm-2.932-.46a1.2,1.2,0,0,0,.926.615,1.032,1.032,0,0,0,.617-1.232A0.9,0.9,0,0,0,440.52,514.715Z" transform="translate(-393.125 -473.063)"/>
</svg>
