<svg xmlns="http://www.w3.org/2000/svg" width="46.344" height="67.531" viewBox="0 0 46.344 67.531">
  <metadata><?xpacket begin="﻿" id="W5M0MpCehiHzreSzNTczkc9d"?>
<x:xmpmeta xmlns:x="adobe:ns:meta/" x:xmptk="Adobe XMP Core 5.6-c138 79.159824, 2016/09/14-01:09:01        ">
   <rdf:RDF xmlns:rdf="http://www.w3.org/1999/02/22-rdf-syntax-ns#">
      <rdf:Description rdf:about=""/>
   </rdf:RDF>
</x:xmpmeta>
                                                                                                    
                                                                                                    
                                                                                                    
                                                                                                    
                                                                                                    
                                                                                                    
                                                                                                    
                                                                                                    
                                                                                                    
                                                                                                    
                                                                                                    
                                                                                                    
                                                                                                    
                                                                                                    
                                                                                                    
                                                                                                    
                                                                                                    
                                                                                                    
                                                                                                    
                                                                                                    
                           
<?xpacket end="w"?></metadata>
<defs>
    <style>
      .cls-1 {
        fill: #bebebe;
        fill-rule: evenodd;
        opacity: 0.3;
      }
    </style>
  </defs>
  <path class="cls-1" d="M398.958,602.074c-3.958,7.446-.728,18.733,8.572,18,2.9,4.6,6.4,8.588,8.571,13.909-2.114.076-3.3-1.562-5.308-.41-0.894,2.239-.179,6.091-0.408,9,2.366,2.265,6.148,3.113,11.021,2.862,2.608,3.388,3.334,8.661,6.533,11.455,4.592,0.106,7.414-1.567,8.571-4.907-0.624-3.6-3.212-5.238-4.083-8.594a18.518,18.518,0,0,0,10.2-19.635c-0.866-5.7-6.142-10.139-8.568-13.908-4.195-3.283-14.392-2.317-20.41-2.454,0.567-5.3,7.721-3.993,9.8-7.774-1.511-4.347-3.631-8.086-7.347-10.227-4.887-.395-8.894,3.631-12.249,6.135-1.5-.947-1.953-2.948-4.486-2.862a7.393,7.393,0,0,0-2.86,4.908C396.5,599.9,399.036,599.678,398.958,602.074ZM420.179,621.3c3.44-.272,4.936,2.988,3.677,6.135C422,626.025,421.115,623.641,420.179,621.3Zm-0.812-22.912c-4.348,2.464-10.067,3.548-9.8,10.637,0.3,1.2,1.238,1.761,2.039,2.453,6.8,0.414,15.6-1.179,20,1.638a46.486,46.486,0,0,1,6.939,10.636c1,10.55-4.338,14.743-9.388,19.226-0.04,3.77,3.123,6.346,2.858,9-0.539.416-1.506,0.4-2.042,0.816-2.99-2.868-3.383-8.335-6.532-11.043-4.023-.472-10.265,1.283-9.391-4.092,2.876-.122,6.637.646,7.349-1.639-2.356-8.273-7.862-13.39-12.244-19.635-8.873,1.553-11.065-9.6-6.532-14.319-0.075-2.857-4.179-3.157-3.264-5.725,2.081-1.115,2.879,2.182,4.9,2.453,3.367-2.079,5.177-5.714,9.791-6.543C416.543,593.588,417.646,596.3,419.367,598.393Zm-3.674,20.046c2.257,4.42,3.911,9.444,7.349,12.682C432.248,627.671,424.613,612.5,415.693,618.439Z" transform="translate(-396.5 -589.375)"/>
</svg>
