<svg xmlns="http://www.w3.org/2000/svg" width="82.594" height="90.657" viewBox="0 0 82.594 90.657">
  <metadata><?xpacket begin="﻿" id="W5M0MpCehiHzreSzNTczkc9d"?>
<x:xmpmeta xmlns:x="adobe:ns:meta/" x:xmptk="Adobe XMP Core 5.6-c138 79.159824, 2016/09/14-01:09:01        ">
   <rdf:RDF xmlns:rdf="http://www.w3.org/1999/02/22-rdf-syntax-ns#">
      <rdf:Description rdf:about=""/>
   </rdf:RDF>
</x:xmpmeta>
                                                                                                    
                                                                                                    
                                                                                                    
                                                                                                    
                                                                                                    
                                                                                                    
                                                                                                    
                                                                                                    
                                                                                                    
                                                                                                    
                                                                                                    
                                                                                                    
                                                                                                    
                                                                                                    
                                                                                                    
                                                                                                    
                                                                                                    
                                                                                                    
                                                                                                    
                                                                                                    
                           
<?xpacket end="w"?></metadata>
<defs>
    <style>
      .cls-1 {
        fill: #bebebe;
        fill-rule: evenodd;
        opacity: 0.4;
      }
    </style>
  </defs>
  <path class="cls-1" d="M289.352,516.852c1.516,1.844-2.618,4.727-4.127,6.047a6.6,6.6,0,0,0,2.179,2.783c5.489-2.084,10.015-7.116,5.1-11.871,2.667-2.26,6.082-4.372,9.131-6.556-0.114-.645-1.37-2.078-1.708-2.784,0.236-.2-0.318-0.212-0.437-0.18-5.974,3.878-12.961,8.324-18.08,12.679,0.154,1,1.284,1.824,2,2.748C285.223,519.207,287.98,515.182,289.352,516.852Zm44.177,70.154a94.17,94.17,0,0,1,8.985-6.3c0.5-.419,1.264-0.312,1.486-0.835-0.35-1.256-1.969-2.213-2.324-3.468-0.376-.16-0.917.5-1.268,0.218,0.425-2.826-2.777-5.572-5.011-5.6-4.017.031-9.866,3.562-10.364,7.536-0.327,2.009,1.479,4.694,3.379,5.748-3.766,3.589-8.509,4.349-11.854,2.724a8.909,8.909,0,0,1-1.528-3.217,6.96,6.96,0,0,1,3.3-3.765c-0.144-1.321-1.76-2.625-2.617-3.432-4.069,1.093-7.2,5.237-7.313,8.326a12.106,12.106,0,0,0,8.457,7.695C322.007,593.884,328,591.165,333.529,587.006Zm1.4-9.877c-0.461,1.093-2.081,1.878-3.009,1.379C330.753,576.734,334.426,574.739,334.932,577.129Zm-7.882-11.057c0.135,2.847-3.99,4.849-5.976,7.276a5.693,5.693,0,0,0,2.288,2.71c4.3-2.816,10.248-6.845,10.142-11.15-1.628-3.344-3.956-3.171-6.312-2.852a10.274,10.274,0,0,0,2.061-2.317c-0.795-1.227-1.983-1.307-2.612-2.021-3.987,3-7.684,6.059-11.158,9.163a11.735,11.735,0,0,0,3.013,3.8C321.594,569.678,324.187,564.53,327.05,566.072Zm-2.59-13.96c-0.857.037-2.331,1.194-3.008,1.849a15.433,15.433,0,0,1,1.382,3c0.951-.327,1.872-1.433,3.043-2.028C326.2,554.119,325.163,552.856,324.46,552.112Zm-7.7-9.14a17.449,17.449,0,0,0-2.033-2.566c-4.516,2.971-9.1,5.753-13.624,8.768-1.384.923-3.222,1.644-3.55,3.151,0.848,0.942,1.616,2.3,2.54,2.855,1.809-.62,3.305-2.6,5.073-3.226,2.49,6.029,9.243,5.905,12.477.782a12,12,0,0,0-2.15-8.607A2.625,2.625,0,0,0,316.76,542.972Zm-8.93-9.575c0.535-.552,1.6-1,1.012-1.773-1.013-.9-1.955-2.17-3.082-2.493-5.183,4.332-10.859,9.379-16.63,13.909,0.549,1.512,2.318,2.931,3.593,3.721,1.89-1.881,4.772-3.568,6.92-5.4,1.862,2.487,3.969,3.731,6.387,3.427a8.477,8.477,0,0,0,5.215-5.359C311.673,537.366,309.672,534.8,307.83,533.4Zm-2.606,5.5c-0.829.377-1.472-.175-2.032-1.154a9,9,0,0,1,1.739-1.63A1.639,1.639,0,0,1,305.224,538.9Zm-13.534-7.289c1.47,0.917,3.105,1.961,4.862,1.62,4.863-.942,8.021-6.464,5.5-10.1-0.05-.062-0.1-0.116-0.181-0.036a6.1,6.1,0,0,0-4.172-1.768C292.736,522.259,287.825,526.965,291.69,531.608Zm6.088-4.529a2.445,2.445,0,0,1-2.465,1.486C293.553,526.714,296.861,524.825,297.778,527.079ZM286.186,507.2c0.98-.334,1.563,1.3,2.4,1.7a9.843,9.843,0,0,0,2.175-1.92c-1.826-3.466-4.653-5.978-7.876-4.006-1.243,1.915.4,4.4-1.333,6.222a1.074,1.074,0,0,1-1.088-.216c-0.676-.947.069-1.615-0.258-2.494a4.33,4.33,0,0,0-2.865-1.228c-6.325,5,4.423,12.548,8.238,5.96C285.742,509.868,285.3,508.4,286.186,507.2Zm24.577,54.515a18.993,18.993,0,0,0,2.4,2.636,69.371,69.371,0,0,0,8.876-6.7c-0.79-1.242-1.573-2.517-2.579-2.673C316.665,556.921,312.832,559.328,310.763,561.714Zm-10.217-54.675c-2.709,1.916-6.893,4.329-9.421,6.594a10.766,10.766,0,0,1,2.58,3.613c0.1,2.749-2.376,5.478-6.047,7.168-0.3-.542-0.694-0.618-0.983-1.228,2.763-2.148,5.268-4.345,3.366-7.417-1.752-1.422-4.378.818-6.236,2.429a10.055,10.055,0,0,1-1.015-1.048c5.191-4.078,11.229-7.99,16.63-12.026C300,505.8,300.044,506.374,300.546,507.039Zm42.184,72.577c-9.1,5.516-18.648,14.384-26.277,11.713a21.782,21.782,0,0,1-4.935-3.14,13.5,13.5,0,0,1-1.89-3.29c0.29-2.638,2.16-4.962,5.541-6.986a4.062,4.062,0,0,1,1.634,1.734,6.781,6.781,0,0,0-2.932,3.836,7.329,7.329,0,0,0,2.107,4.555c3.492,1.863,7.534.979,11.891-1.5,0.968-.905,2.153-1.767,1.811-2.932-4.01-2.116-4.2-6.1-1.171-8.787,2.6-2.3,7.208-3.363,9.391-1.711q0.8,1.193,1.6,2.386a5.591,5.591,0,0,1-.215,2.5c0.55,0.384,1.356-.5,2.03-0.726A11.761,11.761,0,0,0,342.73,579.616Zm-6.564-2.523c-0.473-4.2-7.284-.67-4.787,2.247C332.727,580.491,335.861,578.894,336.166,577.093Zm-3.46-11.969c-0.413,3.773-5.029,6.714-9.2,9.741a6.037,6.037,0,0,1-1.052-1.338c2.106-2.091,7.412-5.405,5.576-8.108-2.068-3.039-6.49,2.39-9.316,4.17-0.676-1.019-1.446-1.57-2.105-2.674a106.594,106.594,0,0,0,10-8.547c0.494,0.674,1.1.8,1.6,1.444-0.761,1.041-2.35,1.917-2.5,3.078C328.117,563.238,330.98,561.33,332.706,565.124Zm-8.645-12.431q0.545,0.813,1.09,1.627a8.186,8.186,0,0,0-1.666,1.266,5.793,5.793,0,0,1-1.2-1.553A8.829,8.829,0,0,0,324.061,552.693Zm-8.314-9.828a3.707,3.707,0,0,0-1.232.978c1.757,3.137,2.729,6.119,1.931,8.75-1.485,2.024-4.47,3.256-6.307,2.791A8.841,8.841,0,0,1,306,550.616c-1.613.156-4.091,2.312-5.581,3.4a10.632,10.632,0,0,1-1.743-2.13l15.981-10.653Zm-2.971,3.547c-1.034.2-2.5,1.693-3.878,2.428a3.653,3.653,0,0,0,1.817,2.711C313.474,551.64,315.613,548.513,312.776,546.412Zm-5.13-14.931c0.072,0.109.145,0.216,0.218,0.326,0.136,0.589-.93.943-1.049,1.482,1.076,1.533,2.3,2.342,3.305,4.23,1.174,3.424-4.731,7.808-7.538,5.181a7.461,7.461,0,0,0-2.47-2.748c-2.25,1.5-4.87,3.73-7.679,5.434a12.024,12.024,0,0,0-2.288-1.769c4.69-4.68,11.269-8.985,15.471-13.763C306.36,530.051,306.938,531.091,307.646,531.481Zm-2.606,3.62a17.191,17.191,0,0,0-2.68,2.569,2.892,2.892,0,0,0,2.939,2.276A2.571,2.571,0,0,0,305.04,535.1Zm-15.083-28.376c0.172,0.441-.594.7-0.866,1.05-0.955-1.214-1.988-2.013-3.233-1.768-2.259,1.369-1.075,3.422-1.587,5.138-3.231,4.017-10.437-1.119-6.424-4.658,1.785,0.252.663,1.781,1.634,3.144a2.5,2.5,0,0,0,2.213.72c3.165-1.753.828-4.6,2.095-6.729C286.256,502.6,288.091,504.73,289.957,506.725Zm10.972,17.312c0.078-.082.131-0.026,0.181,0.037,1.658,3.294-.621,6.307-4.6,7.925a6.211,6.211,0,0,1-4.062-1.369c-3.652-4.375,2.906-9.326,6.736-7.786A6.35,6.35,0,0,1,300.929,524.037Zm-6.413,5.216c1.738,1.531,6.053-1.8,3.659-3.693C296.408,523.671,292.111,526.9,294.516,529.253Zm26.4,28.362c-2.217,1.911-4.879,3.733-7.43,5.579a17.492,17.492,0,0,1-1.524-1.806c2.727-1.842,4.984-3.778,7.354-5.688A6.517,6.517,0,0,1,320.913,557.615Zm-7.806-8.129a5.951,5.951,0,0,1-2.213,1.16,3.289,3.289,0,0,1-1.089-1.627,13.594,13.594,0,0,1,2.574-1.556A2.87,2.87,0,0,1,313.107,549.486Zm-51.495-5.149c-0.612,1.343.081,4.114,1.964,4.807,1.516-.485,3.768-2.217,5-2.864,0.145-.941-0.411-2.024-0.075-2.929,1.108-2.53,3.712-4.079,6.846-5.975,4.209-2.547,9.041-5.551,12.032-6.921-0.349-1.761-2.431-2.474-3.522-3.613-2.139-.148-4.468.664-6.527,0.115-0.754,1.356-.857,2.839-1.409,4.233C270.709,535.485,264.454,539.573,261.612,544.337Zm37.295,13.411c0.963-.793,2.29-1.645,3.079-2.211,0.056-1.1-1.523-2-1.562-3.033a11.621,11.621,0,0,0-3.589,1.92,8.053,8.053,0,0,0-3.665-1.948,11.805,11.805,0,0,0-2.607,2.207c0.268,0.915,1.754,1.755,1.961,2.927-6.052,3.8-16.869,8.6-12.64,15.169a5.72,5.72,0,0,0,7.8-.8,4.193,4.193,0,0,0-1.273-3.073c-0.779-.343-1.813.581-2.574,0.147a2.113,2.113,0,0,1,.833-1.34c2.633-2.377,7.423-4.672,10.255-6.522a8.5,8.5,0,0,0,1.707,1.842,7.568,7.568,0,0,0,3.477-1.846C299.966,560.09,298.471,558.727,298.907,557.748Zm-16.7-15.533a3.328,3.328,0,0,0,1.01-2.713c-0.926-2.438-3.378-1.517-4.241,0C278.477,541.19,280.549,543.344,282.208,542.215Zm-7.527,13.174c-0.175-.757.949-1.254,1.049-1.954-0.768-1.041-1.54-2.043-2.47-2.276-2.014,1.606-3.018,3.412-2.786,5.465,0.17,1.243,1.565,2.707,2.434,3.4,2.632,1.6,7.409,1.342,9.316-2.288,0.566-1.075.425-2.219,0.868-3.4-0.024-1.1-.526-2.3.54-3.182,1.188-.446,2.04.8,3.012,1.441,1.391-.05,2.089-1.636,2.789-2.643-2.451-3.718-8.155-5.906-11.063-1.253-0.487,2.16,1.43,4.8.154,6.8C276.994,556.705,275.641,557.028,274.681,555.389Zm-8.234-1.257c3.866-2.5,8.282-6.5,12.645-9.527a6.1,6.1,0,0,0-1.527-3.218c-4.413,2.081-9.283,6.236-12.9,9.384A7.687,7.687,0,0,0,266.447,554.132Zm19.445-24.254,0.146,0.218c-6.654,4.558-18.679,8.436-19.022,15.5a21.54,21.54,0,0,1-3.225,1.993,4.292,4.292,0,0,1-1.162-1.735c0.5-2.789,3.2-5.157,5.9-7.385,2.775-2.292,5.705-4.724,8.261-6.918,0.766-1.037.415-2.3,1.048-3.363C280.632,528.208,283.663,527.037,285.892,529.878Zm14.934,25.338c-2.872,1.193-4.259,3.052-2.135,5.5a17.616,17.616,0,0,1-1.774.868c-0.539-.6-1.048-1.368-1.6-1.914-3.838,1.522-8.721,4.925-12.175,7.644-0.494.78-1.073,1.544-.506,2.532,0.867,1.33,2.224.194,3.263,0.649,1,1.216-1.064,1.49-1.81,1.991-1.172-.317-2.551-0.009-3.374-1.046-1.479-1.862.413-5.15,2.5-6.837,3.354-2.718,8.095-5.053,10.727-6.524-0.068-1.142-1.573-2.249-2.253-3.362,1.814-2.1,3.441-.622,4.859.683,0.988-.22,2.22-1.671,3.154-1.631A5.693,5.693,0,0,1,300.826,555.216Zm-19.489-13.832c-1,.131-1.971-1.448-1.164-2.205A1.247,1.247,0,0,1,281.337,541.384Zm5.994,10.121c-1.192-.958-2.369-1.99-3.809-1.7a4.419,4.419,0,0,0-1.34,1.053c-1.022,2.428.366,5.336-1.878,7.523-2.791,2.333-4.921,1.356-7.072.479-0.628-.791-1.609-1.516-1.67-2.494-0.176-1.444.685-2.685,1.809-3.872,0.34,0.028.53,0.8,0.872,0.83-0.173.876-.982,1.624-0.614,2.606,1.443,2.181,3.743,2.181,5.693.281,1.763-2.22-.547-5.247.209-7.668,3.351-3.221,6.35-.66,9,1.221C288.813,550.482,287.44,550.868,287.331,551.505Zm-9.218-7.187c-4.1,2.7-7.271,5.578-11.268,8.3-0.312-.564-0.534-1.109-0.8-1.662,3.938-2.856,7.48-5.789,11.159-8.7A4.9,4.9,0,0,1,278.113,544.318Z" transform="translate(-261.406 -502.281)"/>
</svg>
