<svg xmlns="http://www.w3.org/2000/svg" width="51.782" height="50.594" viewBox="0 0 51.782 50.594">
  <metadata><?xpacket begin="﻿" id="W5M0MpCehiHzreSzNTczkc9d"?>
<x:xmpmeta xmlns:x="adobe:ns:meta/" x:xmptk="Adobe XMP Core 5.6-c138 79.159824, 2016/09/14-01:09:01        ">
   <rdf:RDF xmlns:rdf="http://www.w3.org/1999/02/22-rdf-syntax-ns#">
      <rdf:Description rdf:about=""/>
   </rdf:RDF>
</x:xmpmeta>
                                                                                                    
                                                                                                    
                                                                                                    
                                                                                                    
                                                                                                    
                                                                                                    
                                                                                                    
                                                                                                    
                                                                                                    
                                                                                                    
                                                                                                    
                                                                                                    
                                                                                                    
                                                                                                    
                                                                                                    
                                                                                                    
                                                                                                    
                                                                                                    
                                                                                                    
                                                                                                    
                           
<?xpacket end="w"?></metadata>
<defs>
    <style>
      .cls-1 {
        fill: #bebebe;
        fill-rule: evenodd;
        opacity: 0.25;
      }
    </style>
  </defs>
  <path class="cls-1" d="M341.467,413.9c4.583-12.093,9.463-23.884,14.279-35.74,1.392-3.866,3.357-8.371,4.148-12.068A20.105,20.105,0,0,0,352.983,364a1.651,1.651,0,0,0-.691.464c-6.725,16.43-15.04,31.262-21.42,48.041C333.132,414.1,337.992,414.289,341.467,413.9Zm-20.039-27.615a13.644,13.644,0,0,0,8.753,1.623c5.442-1.585,9.022-6.188,7.37-14.158-1.854-3.7-5.053-6.047-10.364-6.265-0.141.012-.274,0.034-0.23,0.231-2.672.482-4.255,2.058-5.99,3.481-0.812,3.513-2.717,5.927-2.072,10.909A17.452,17.452,0,0,0,321.428,386.281Zm8.061-9.054c-0.524,1.175-2.526,2.269-3.915,1.16C325.457,376.176,329.5,373.939,329.489,377.227Zm33.168,37.364c5.66-1.1,8.343-5.208,7.832-12.531-1.46-3.945-3.268-7.538-7.141-9.052-0.969-.492-2.807-0.112-4.146-0.23-0.139.013-.274,0.035-0.229,0.23-2.8,1.124-4.239,3.621-6.45,5.339C347.414,406.348,353.283,415,362.657,414.591Zm-4.146-10.906a3.857,3.857,0,0,1,3.225-.232,4.4,4.4,0,0,1-.23,1.856C360.169,405.844,358.451,405.276,358.511,403.685Zm-0.691-35.973c-5.925,14.764-12.291,29.082-18.427,43.632-1.783-.214-3.8-0.191-5.527-0.466,5.391-15.918,13.768-28.828,19.117-44.79A37.128,37.128,0,0,1,357.82,367.712ZM326.957,370.5c5.916-.834,9.668,3.689,8.06,10.445a9.837,9.837,0,0,1-6.219,4.641C317,387.249,319.236,371.286,326.957,370.5Zm4.375,6.731c0.081-6.506-8.51-3.036-6.909,1.857C326.126,381.864,331.115,380.478,331.332,377.227Zm28.791,18.566c0.65-.713,1.59.243,2.534,0,2.423,1.507,3.847,4.018,4.838,6.963a13.2,13.2,0,0,1-1.152,6.5c-3.192,4.131-11.456,2-13.36-2.319-1.43-3.245.374-6.981,2.3-9.283C357.523,397.66,358.2,396.1,360.123,395.793Zm-3.225,7.195c-0.82,7.235,10.377,4.739,6.45-1.392C361.42,399.965,357.777,400.951,356.9,402.988Z" transform="translate(-318.781 -364)"/>
</svg>
